<svg xmlns="http://www.w3.org/2000/svg" width="18" height="17" fill="none" viewBox="0 0 18 17"><path fill="#E24329" d="M8.99944 16.5318L12.3155 6.3606H5.68823L8.99944 16.5318Z"/><path fill="#FCA326" d="M1.04346 6.36069L0.0336429 9.45082C-0.0577368 9.73141 0.040947 10.0411 0.282138 10.216L8.99941 16.5318L1.04346 6.36069Z"/><path fill="#E24329" d="M1.04346 6.36064H5.68815L3.6892 0.235045C3.58689 -0.0783483 3.14103 -0.0783483 3.03504 0.235045L1.04346 6.36064Z"/><path fill="#FCA326" d="M16.9601 6.36069L17.9663 9.45082C18.0576 9.73141 17.959 10.0411 17.7178 10.216L8.99927 16.5318L16.9601 6.36069Z"/><path fill="#E24329" d="M16.9601 6.36064H12.3154L14.3107 0.235045C14.413 -0.0783483 14.8589 -0.0783483 14.9649 0.235045L16.9601 6.36064Z"/><path fill="#FC6D26" d="M8.99927 16.5318L12.3153 6.36069H16.9601L8.99927 16.5318Z"/><path fill="#FC6D26" d="M8.99935 16.5318L1.04346 6.36069H5.68815L8.99935 16.5318Z"/></svg>